<?xml version="1.0" encoding="utf-8"?>
<!-- Generator: Adobe Illustrator 16.0.0, SVG Export Plug-In . SVG Version: 6.00 Build 0)  -->
<!DOCTYPE svg PUBLIC "-//W3C//DTD SVG 1.1//EN" "http://www.w3.org/Graphics/SVG/1.1/DTD/svg11.dtd">
<svg version="1.1" id="Ebene_1" xmlns="http://www.w3.org/2000/svg" xmlns:xlink="http://www.w3.org/1999/xlink" x="0px" y="0px"
	 width="8657.958px" height="850.096px" viewBox="0 0 8657.958 850.096" enable-background="new 0 0 8657.958 850.096"
	 xml:space="preserve">
<g id="Screen_1_" enable-background="new    ">
	<g id="Screen">
		<g>
			
				<linearGradient id="SVGID_1_" gradientUnits="userSpaceOnUse" x1="3446.7527" y1="625.2839" x2="7022.7207" y2="625.2839" gradientTransform="matrix(1 0 0 -1 114.9448 1049.8198)">
				<stop  offset="0" style="stop-color:#ED8D02"/>
				<stop  offset="0.15" style="stop-color:#FFE200"/>
				<stop  offset="0.4" style="stop-color:#FFE200"/>
				<stop  offset="0.77" style="stop-color:#FF0500"/>
			</linearGradient>
			<path fill="url(#SVGID_1_)" d="M4792.567,297.177c-137.688-0.015-225.826-0.134-363.517,0.06l0.023,0.314
				c-5.59,0.206-11.202,0.787-16.633,1.915c-46.204,9.597-79.068,49.327-79.258,96.698c-0.324,82.458-0.102,164.919-0.049,247.375
				c0.002,4.387,0.177,8.83,0.885,13.147c7.984,48.786,45.926,82.619,94.666,85.279l-0.009,0.134c1.276,0.001,2.54,0.003,3.81,0.005
				c0.771,0.016,1.533,0.05,2.31,0.051c20.711,0.02,41.42,0.017,62.129,0.02c101.709,0.078,181.522-0.004,295.03-0.017
				c30.467,0,68.604-25.298,68.604-68.571c0.087-18.365-0.121-18.298-0.121-18.298l-420.371-0.009c0,0-0.899-0.001-1.349-0.001
				c-14.787-0.006-19.002-4.237-19.004-18.973c-0.006-77.826-0.002-155.651,0.002-233.479c0-1.854-0.084-3.718,0.101-5.555
				c0.765-7.616,5.333-12.174,12.981-12.854c2.76-0.245,8.332-0.162,8.332-0.162l419.963-0.12c0,0,0.209,0.067,0.123-18.316
				C4861.217,322.503,4823.055,297.177,4792.567,297.177z M5298.314,297.177c-189.506-0.02-307.062,0.302-292.458,0.282
				c-7.131,0.01-14.401,0.57-21.37,2.022c-46.691,9.734-79.062,49.719-79.264,98.097c-0.221,53.492-0.051,106.987-0.055,160.479
				c-0.002,31.077-0.01,64.46-0.01,97.592l80.754,91.91c4.477-2.432,5.891-7.287,5.891-16.23
				c0.006-106.523,0.002-220.552,0.008-327.074c0-2.316-0.114-4.647,0.104-6.943c0.729-7.64,5.293-12.197,12.938-12.886
				c2.76-0.248,8.332-0.165,8.332-0.165l353.615-0.169c0,0,0.209,0.068,0.123-18.307
				C5366.922,322.489,5328.783,297.177,5298.314,297.177z M4009.077,378.78c-0.567,0-1.133,0.017-1.7,0.021v0.154
				c-14.743,0-114.584-0.009-145.228-0.009v0.015c-68.03-0.82-130.086-56.1-130.086-124.188c0-68.479,62.769-124.01,131.255-124.206
				v-0.003c21.264,0,275.876-0.001,377.712-0.006c8.924-0.001,13.771-1.422,16.196-5.918L4165.5,43.515
				c-33.066,0-303.693,0.01-303.693,0.01v0.307c-115.379,1.896-229.778,95.59-229.778,210.931
				c0,115.842,115.399,209.864,231.29,210.962v-0.062l145.814,0.008l0.002-0.269c90.295,0.545,170.029,43.755,170.029,126.729
				c0,91.9-78.223,126.285-169.949,126.729v-0.014c0,0-322.535-0.011-355.65-0.011l-91.867,80.818
				c2.429,4.479,7.285,5.896,16.223,5.896c106.477,0.005,431.214,0.006,431.214,0.006l0.002-0.08
				c144.813-0.021,265.811-74.528,265.811-213.349C4274.947,442.787,4135.91,378.78,4009.077,378.78z M7137.6,401.822
				c-0.006-6.923-0.199-13.966-1.434-20.751c-9.023-49.683-49.777-83.614-100.32-83.683c-56.055-0.075-112.109-0.019-168.162-0.017
				c-56.75,0.001-113.5-0.146-170.249,0.045c-55.093,0.186-99.737,44.135-99.907,99.116c-0.344,110.025-0.127,220.049-0.1,330.075
				c0.002,11.083,4.539,15.52,15.674,15.549c17.371,0.05,34.744,0.019,52.117,0.016c15.172-0.003,18.828-3.645,18.828-18.798
				c0.004-106.552,0-213.102,0.004-319.651c0-15.541,3.834-19.461,19.136-19.463c109.562-0.009,219.122-0.01,328.685,0.002
				c15.004,0.001,18.904,3.938,18.904,18.927c0.003,107.478-0.003,214.954,0.01,322.43c0.002,11.803,4.659,16.519,16.298,16.543
				c17.371,0.036,34.745,0.014,52.116,0.009c14.547-0.004,18.453-3.912,18.457-18.611
				C7137.664,616.313,7137.686,509.068,7137.6,401.822z M5861.543,297.442c-113.972-0.209-230.944-0.221-344.916,0.006
				c-54.636,0.109-98.861,43.727-99.156,98.215c-0.446,82.697-0.438,165.399-0.004,248.096c0.283,54.3,44.804,98.268,99.151,98.343
				c137.601,0.192,225.681,0.073,363.278,0.059c30.47,0,68.604-25.298,68.604-68.571c0.088-18.365-0.121-18.298-0.121-18.298
				s-177.028-0.002-255.789-0.002c-55.597-0.002-114.192,0.01-169.789-0.009c-14.229-0.004-18.823-4.562-18.834-18.597
				c-0.015-19.689-0.004-39.38-0.004-59.071v-14.518h8.912c92.659,0,188.319,0.011,280.979-0.008
				c24.555-0.005,49.125,0.456,73.658-0.288c45.489-1.379,88.49-40.641,92.11-85.96c2.295-28.771,2.733-57.961,0.774-86.745
				C5956.775,336.899,5913.904,297.538,5861.543,297.442z M5873.979,460.276c-0.043,10.659-5.188,16.127-15.58,16.132
				c-115.83,0.056-234.659,0.03-350.487,0.015c-0.914,0-1.826-0.181-3.947-0.404v-7.935c0-21.312-0.003-42.625,0.002-63.938
				c0.002-16.033,3.91-19.89,20.214-19.89c94.056-0.003,191.108-0.002,285.161-0.001c15.754,0,31.506-0.045,47.26,0.016
				c13.05,0.05,17.377,4.461,17.396,17.626C5874.024,421.356,5874.061,440.815,5873.979,460.276z M6451.354,297.442
				c-113.971-0.209-230.943-0.221-344.914,0.006c-54.637,0.109-98.863,43.727-99.158,98.215
				c-0.445,82.697-0.436,165.399-0.004,248.096c0.284,54.3,44.805,98.268,99.152,98.343c137.601,0.192,225.68,0.073,363.278,0.059
				c30.467,0,68.604-25.298,68.604-68.571c0.086-18.365-0.121-18.298-0.121-18.298s-177.027-0.002-255.789-0.002
				c-55.597-0.002-114.192,0.01-169.789-0.009c-14.229-0.004-18.822-4.562-18.834-18.597c-0.016-19.689-0.004-39.38-0.004-59.071
				v-14.518h8.91c92.662,0,188.321,0.011,280.979-0.008c24.556-0.005,49.126,0.456,73.66-0.288
				c45.489-1.379,88.487-40.641,92.106-85.96c2.299-28.771,2.735-57.961,0.775-86.745
				C6546.586,336.899,6503.717,297.538,6451.354,297.442z M6463.791,460.276c-0.043,10.659-5.189,16.127-15.58,16.132
				c-115.83,0.056-234.66,0.03-350.488,0.015c-0.914,0-1.826-0.181-3.947-0.404v-7.935c0-21.312-0.004-42.625,0.002-63.938
				c0.002-16.033,3.91-19.89,20.213-19.89c94.058-0.003,191.109-0.002,285.164-0.001c15.752,0,31.504-0.045,47.258,0.016
				c13.051,0.05,17.377,4.461,17.396,17.626C6463.834,421.356,6463.869,440.815,6463.791,460.276z"/>
		</g>
	</g>
</g>
<g id="Dream_1_" enable-background="new    ">
	<g id="Dream">
		<g>
			
				<linearGradient id="SVGID_2_" gradientUnits="userSpaceOnUse" x1="-4.6487" y1="625.2878" x2="3405.5129" y2="625.2878" gradientTransform="matrix(1 0 0 -1 114.9448 1049.8198)">
				<stop  offset="0" style="stop-color:#586EA0"/>
				<stop  offset="0.3" style="stop-color:#A48CC1"/>
				<stop  offset="0.9" style="stop-color:#A12284"/>
			</linearGradient>
			<path fill="url(#SVGID_2_)" d="M1398.23,297.177c-189.506-0.02-307.063,0.302-292.456,0.282
				c-7.133,0.01-14.404,0.57-21.372,2.022c-46.692,9.734-79.062,49.719-79.263,98.097c-0.221,53.492-0.05,106.987-0.055,160.479
				c-0.002,31.077-0.01,64.46-0.01,97.592l80.754,91.91c4.477-2.432,5.891-7.287,5.892-16.23
				c0.005-106.523,0.002-220.552,0.006-327.074c0-2.316-0.113-4.647,0.104-6.943c0.729-7.64,5.292-12.197,12.938-12.886
				c2.76-0.248,8.33-0.165,8.33-0.165l353.616-0.169c0,0,0.209,0.068,0.121-18.307
				C1466.838,322.489,1428.698,297.177,1398.23,297.177z M559.177,43.518c-0.317,0-0.636,0.001-0.951,0.003v-0.014
				c0,0-272.877,0.001-379.208,0.007c-8.927,0.001-13.774,1.421-16.201,5.918l91.743,81.125c32.009,0,286.591-0.01,302.916-0.011
				v0.032c161.74,0.692,292.643,132.017,292.643,293.917c0,161.903-130.902,293.228-292.643,293.918v0.432
				c-11.461-0.001-322.807-0.011-355.312-0.011l-91.867,80.818c2.429,4.479,7.284,5.896,16.223,5.896
				c106.476,0.005,431.214,0.006,431.214,0.006v-0.084c0.481,0.002,0.962,0.005,1.444,0.005
				c210.407,0,380.979-170.571,380.979-380.979C940.156,214.088,769.585,43.518,559.177,43.518z M3520.306,396.285
				c-0.136-54.324-44.395-98.73-98.687-98.809c-54.503-0.078-128.545-0.131-196.81-0.16c-37.54-0.016-69.042,6.729-99.791,44.995
				c-31.878-38.267-62.253-45.01-99.791-44.993c-68.145,0.03-153.322,0.087-207.736,0.174
				c-53.591,0.087-97.741,43.592-97.994,97.062c-0.528,110.95-0.205,221.904-0.175,332.858c0.003,10.083,4.825,14.695,15.077,14.737
				c17.604,0.07,35.208,0.023,52.812,0.02c15.122-0.004,18.718-3.627,18.718-18.91c0.002-106.553,0-213.104,0.002-319.658
				c0.002-15.44,3.866-19.339,19.257-19.342c64.396-0.012,143.797-0.006,208.191-0.004c25.056,0,46.82,21.02,46.82,39.436
				c0.001,110.49-0.007,190.968,0.012,301.458c0.003,12.996,4.065,17.005,17.031,17.019c16.91,0.019,33.819,0.006,50.728,0.005
				c15.189-0.003,18.926-3.695,18.926-18.73c0.003-109.795,0.002-189.577,0.002-299.374c0-20.443,16.093-39.812,39.507-39.812
				c53.739,0,122.483-0.002,176.226,0c11.812,0,23.625,0.049,35.438-0.008c6.328-0.027,11.713,2.081,14.074,8.112
				c1.37,3.511,1.315,7.712,1.318,11.604c0.065,100.528,0.052,208.562,0.052,309.092c0,7.413-0.158,14.83,0.066,22.236
				c0.257,8.463,3.961,13.059,11.394,14.116l75.436-85.857C3520.459,574.706,3520.522,483.162,3520.306,396.285z M1973.461,297.442
				c-113.97-0.209-230.942-0.221-344.913,0.006c-54.636,0.109-98.862,43.727-99.157,98.215
				c-0.446,82.697-0.438,165.399-0.004,248.096c0.284,54.3,44.804,98.268,99.152,98.343c137.601,0.192,225.681,0.073,363.279,0.059
				c30.467,0,68.605-25.298,68.605-68.571c0.087-18.365-0.122-18.298-0.122-18.298s-177.029-0.002-255.789-0.002
				c-55.597-0.002-114.193,0.01-169.79-0.009c-14.229-0.004-18.822-4.562-18.833-18.597c-0.016-19.689-0.004-39.38-0.004-59.071
				v-14.518h8.911c92.66,0,188.32,0.011,280.979-0.008c24.555-0.005,49.125,0.456,73.66-0.288
				c45.489-1.379,88.49-40.641,92.108-85.96c2.297-28.771,2.735-57.961,0.775-86.745
				C2068.696,336.899,2025.826,297.538,1973.461,297.442z M1985.901,460.276c-0.042,10.659-5.189,16.127-15.581,16.132
				c-115.829,0.056-234.659,0.03-350.488,0.015c-0.913,0-1.824-0.181-3.946-0.404v-7.935c0-21.312-0.002-42.625,0.001-63.938
				c0.003-16.033,3.911-19.89,20.215-19.89c94.055-0.003,191.108-0.002,285.162-0.001c15.753,0,31.506-0.045,47.259,0.016
				c13.05,0.05,17.378,4.461,17.396,17.626C1985.945,421.356,1985.98,440.815,1985.901,460.276z M2573.076,297.236
				c-137.658-0.192-225.775-0.073-363.435-0.059c-30.48,0-68.634,25.3-68.634,68.576c-0.086,18.365,0.123,18.298,0.123,18.298
				s177.104,0.003,255.898,0.003c55.619,0,114.242-0.01,169.861,0.008c14.236,0.003,18.832,4.562,18.843,18.597
				c0.015,19.691,0.005,39.384,0.005,59.074v14.52h-8.916c-92.7,0-188.4-0.012-281.102,0.009
				c-24.564,0.005-49.146-0.457-73.69,0.287c-45.509,1.379-88.528,40.643-92.149,85.965c-2.297,28.772-2.735,57.965-0.773,86.749
				c3.624,53.198,46.513,92.562,98.898,92.657c114.02,0.209,231.043,0.221,345.062-0.008c54.659-0.107,98.904-43.729,99.199-98.22
				c0.445-82.701,0.438-165.408,0.004-248.108C2671.988,341.281,2627.449,297.311,2573.076,297.236z M2585.738,571.268
				c0,21.312,0.002,42.627-0.002,63.94c-0.003,16.034-3.913,19.89-20.223,19.89c-94.096,0.005-191.19,0.003-285.285,0.002
				c-15.76,0-31.52,0.045-47.278-0.015c-13.057-0.052-17.387-4.461-17.405-17.627c-0.026-19.463-0.062-38.922,0.018-58.383
				c0.042-10.66,5.191-16.129,15.588-16.134c115.878-0.055,234.759-0.03,350.638-0.014c0.914,0,1.826,0.181,3.95,0.403V571.268z"/>
		</g>
	</g>
</g>
<g id="Screen_2_">
	<g>
		<linearGradient id="SVGID_3_" gradientUnits="userSpaceOnUse" x1="7045.5342" y1="422.9319" x2="8594.915" y2="422.9319">
			<stop  offset="0" style="stop-color:#337F66"/>
			<stop  offset="0.3" style="stop-color:#339966"/>
			<stop  offset="0.9" style="stop-color:#335B66"/>
		</linearGradient>
		<path fill="url(#SVGID_3_)" d="M8594.761,240.043c-0.135-54.342-44.391-98.764-98.682-98.841
			c-54.502-0.077-128.543-0.132-196.807-0.159c-37.541-0.017-69.041,6.73-99.789,45.008c-31.879-38.277-62.252-45.023-99.789-45.007
			c-68.145,0.03-153.32,0.087-207.734,0.175c-53.592,0.087-97.738,43.605-97.99,97.092c-0.529,110.984-0.205,379.588-0.176,490.576
			c0.002,10.086,4.824,14.699,15.076,14.742c17.604,0.07,35.209,0.021,52.811,0.018c15.123-0.002,18.719-3.627,18.719-18.916
			c0.002-106.584,0-370.783,0.002-477.369c0.002-15.445,3.867-19.346,19.256-19.348c64.396-0.012,143.795-0.006,208.188-0.004
			c25.057,0,46.822,21.025,46.822,39.447c0,110.524-0.008,348.641,0.012,459.164c0.002,13,4.064,17.01,17.031,17.023
			c16.91,0.018,33.818,0.006,50.727,0.004c15.189-0.002,18.926-3.695,18.926-18.734c0.002-109.83,0.002-347.25,0.002-457.081
			c0-20.45,16.092-39.823,39.506-39.823c53.738,0,122.482-0.002,176.223,0c11.812,0,23.625,0.049,35.438-0.008
			c6.33-0.027,11.715,2.082,14.074,8.115c1.371,3.511,1.318,7.713,1.32,11.606c0.064,100.561,0.051,366.241,0.051,466.802
			c0,7.414-0.158,14.834,0.066,22.242c0.258,8.465,3.961,13.062,11.393,14.121l75.436-85.883
			C8594.917,576.131,8594.979,326.947,8594.761,240.043z M7775.091,783.047c-5.412-5.057-11.088-9.832-16.652-14.723
			c-75.49-66.344-242.713-212.096-317.502-279.227c-22.816-20.48,4.502-17.264,4.502-17.264s34.439,0.001,47.699,0.002
			c126.863-0.019,265.916-64.072,265.916-213.494c0-138.913-121.045-213.473-265.912-213.493v-0.081
			c0,0-324.865,0.001-431.379,0.006c-8.941,0.001-13.801,1.417-16.229,5.9l91.9,80.874c33.129,0,355.785-0.01,355.785-0.01v-0.015
			c91.762,0.446,170.014,34.853,170.014,126.817c0,83.028-79.764,126.268-170.092,126.813l-97.541-0.269
			c0,0-16.195-0.004-52.186-0.004c-54.873,0-78.469,58.76-43.533,93.707c61.404,61.424,297.162,263.908,363.91,322.506l114.365-0.15
			C7782.278,794.648,7781.276,788.826,7775.091,783.047z"/>
	</g>
</g>
</svg>
